<svg width="64" height="64" viewBox="0 0 64 64" fill="none" xmlns="http://www.w3.org/2000/svg">
  <rect width="64" height="64" rx="12" fill="#F2C811"/>
  <path d="M22 28C22 24.6863 24.6863 22 28 22H36C39.3137 22 42 24.6863 42 28V36C42 39.3137 39.3137 42 36 42H28C24.6863 42 22 39.3137 22 36V28Z" fill="white"/>
  <path d="M16 18C16 15.7909 17.7909 14 20 14H24C26.2091 14 28 15.7909 28 18V22C28 24.2091 26.2091 26 24 26H20C17.7909 26 16 24.2091 16 22V18Z" fill="white"/>
  <path d="M36 46C36 43.7909 37.7909 42 40 42H44C46.2091 42 48 43.7909 48 46V50C48 52.2091 46.2091 54 44 54H40C37.7909 54 36 52.2091 36 50V46Z" fill="white"/>
</svg>


